<?xml version="1.0" encoding="utf-8"?>
<!-- Generator: Adobe Illustrator 16.0.0, SVG Export Plug-In . SVG Version: 6.00 Build 0)  -->
<!DOCTYPE svg PUBLIC "-//W3C//DTD SVG 1.1//EN" "http://www.w3.org/Graphics/SVG/1.1/DTD/svg11.dtd">
<svg version="1.1" id="Layer_1" xmlns="http://www.w3.org/2000/svg" xmlns:xlink="http://www.w3.org/1999/xlink" x="0px" y="0px"
	 width="1920px" height="915.092px" viewBox="0 161.288 1920 915.092" enable-background="new 0 161.288 1920 915.092"
	 xml:space="preserve">
<g id="Layer_1_1_">
	<g id="canopy">
		<g id="logo_contraption_cart">
			<g id="text">
				<g enable-background="new    ">
					<path d="M458.029,665.306l5.797,21.354c-1.417,12.045-5.186,28.565-11.304,49.563c-4.768-11.208-9.758-21.479-14.976-30.82
						c-12.753-5.152-25.282-7.729-37.584-7.729c-20.098,0-35.782,5.927-47.054,17.778c-11.337,11.917-17.005,25.861-17.005,41.835
						c0,8.761,2.382,16.297,7.15,22.608c4.701,6.249,13.72,12.044,27.053,17.392c13.396,5.346,30.146,9.372,50.241,12.077
						c6.698,0.966,13.558,1.739,20.58,2.318c7.02,0.579,14.718,1.029,23.092,1.353c8.373,0.322,16.198,0.483,23.478,0.483
						l-17.005,22.317c-25.121,4.701-48.825,7.054-71.109,7.054c-29.438,0-50.951-5.637-64.541-16.907
						c-13.72-11.208-20.579-25.767-20.579-43.671c0-19.84,5.7-39.355,17.101-58.552c11.271-19.192,26.73-34.104,46.376-44.732
						s39.323-15.942,59.033-15.942C443.343,663.083,450.428,663.824,458.029,665.306z"/>
				</g>
				<g enable-background="new    ">
					<path d="M519.255,696.843c1.115,0.299,7.848,1.602,20.196,3.906c11.158,2.008,18.523,3.57,22.095,4.687
						c3.495,1.267,6.807,3.273,9.931,6.025c3.125,2.753,5.468,6.621,7.03,11.604c1.563,4.908,2.343,11.567,2.343,19.974
						l-0.558,32.806c0,3.868,0.37,8.407,1.115,13.613c-6.918,1.115-19.602,4.313-38.05,9.596
						c1.339-10.189,2.009-24.214,2.009-42.066c-1.266,2.084-4.947,6.473-11.047,13.167c-6.101,6.694-14.804,15.845-26.109,27.45
						c-8.704-2.308-15.399-4.539-20.085-6.695c-0.299-2.826-0.894-7.215-1.786-13.167c-1.267-9.298-1.897-17.703-1.897-25.218
						c0-10.86,2.27-20.011,6.808-27.449C495.636,717.709,504.972,708.3,519.255,696.843z M518.808,723.735l2.455,43.852
						c4.09-4.536,8.146-9.651,12.163-15.343c4.017-5.69,7.438-11.027,10.266-16.012C539.6,730.356,531.306,726.189,518.808,723.735z
						"/>
					<path d="M602.05,729.761l0.78-32.137l33.811,3.125l1.896,25.775c1.785-5.059,3.385-9.969,4.799-14.729
						c1.115-3.942,2.343-6.992,3.682-9.15c1.188-2.082,3.309-3.904,6.359-5.468c2.901-1.562,6.396-2.343,10.489-2.343
						c4.611,0,9.708,1.079,15.287,3.235l-3.682,14.172c-1.86,7.662-4.204,16.143-7.03,25.439
						c-8.927-5.875-14.952-9.261-18.077-10.153c-5.952,7.812-9.483,13.726-10.6,17.741c0.445,6.695,0.929,11.866,1.451,15.511
						c6.694,2.382,12.608,3.57,17.741,3.57c-3.125,8.778-6.957,18.374-11.492,28.788c-15.475,0-24.958-0.931-28.454-2.789
						c-3.646-1.784-7.439-4.835-11.381-9.149c-4.018-4.389-6.025-12.722-6.025-24.994
						C601.604,748.172,601.752,739.356,602.05,729.761z"/>
					<path d="M694.998,695.393l-0.111-9.037c0.893-0.148,4.425-0.521,10.601-1.116c10.489-1.115,18.3-2.045,23.434-2.789
						c0.072,1.189,0.111,2.454,0.111,3.794c0,2.381-0.262,6.323-0.78,11.827c2.38,0.224,7.103,0.335,14.171,0.335
						c4.835,0,8.07-0.111,9.708-0.335c-2.01,12.052-3.312,19.155-3.905,21.313c-4.985,0.745-11.866,1.303-20.644,1.674
						c-0.521,11.012-0.78,18.523-0.78,22.54c0,6.473,1.523,11.645,4.575,15.511c2.974,3.794,8.146,6.771,15.51,8.927l-19.305,29.234
						c-24.324-6.694-36.487-19.266-36.487-37.716c0-3.049,0.52-8.926,1.562-17.63c1.041-9,1.636-15.063,1.785-18.188
						c-3.422,0.073-7.216,0.483-11.381,1.227l11.828-20.308v-2.231L694.998,695.393z"/>
				</g>
				<g enable-background="new    ">
					<path d="M1157.489,752.892c12.943,1.563,21.424,3.199,25.441,4.91c3.793,1.785,5.689,5.133,5.689,10.042
						c0,5.803-1.859,11.346-5.578,16.626c-3.795,5.356-7.998,8.034-12.609,8.034c-6.1,0-14.246-1.71-24.438-5.133
						C1151.053,776.882,1154.884,765.389,1157.489,752.892z"/>
					<path d="M1232.362,696.988c15.025,0.373,25.775,1.339,32.248,2.9c6.918,1.712,12.646,5.319,17.185,10.823
						c4.536,5.654,6.807,12.796,6.807,21.424c-11.604,1.937-22.578,4.873-32.918,8.815c-1.711-8.257-6.175-13.314-13.39-15.175
						c-1.34,13.465-2.01,22.726-2.01,27.783c0,3.722,1.078,6.771,3.236,9.149c2.156,2.382,5.579,4.391,10.266,6.025
						c4.834,1.784,9.224,2.679,13.167,2.679c6.249,0,12.163-3.646,17.741-10.937l0.447,0.446
						c-4.315,12.126-9.672,20.979-16.068,26.558c-6.324,5.578-15.771,8.368-28.342,8.368c-9.373,0-16.925-1.896-22.652-5.689
						c-5.653-3.794-9.446-8.442-11.381-13.948c-2.009-5.505-3.014-12.794-3.014-21.87c0-9.373,0.372-21.015,1.116-34.926
						C1213.429,711.383,1222.615,703.906,1232.362,696.988z"/>
					<path d="M1389.248,701.005l-6.025,10.268c5.578,1.712,10.115,5.318,13.613,10.822c3.569,5.579,5.354,12.461,5.354,20.644
						c0,7.886-1.524,15.214-4.574,21.981c-3.125,6.695-6.436,11.568-9.932,14.617c-3.57,3.199-9.707,6.957-18.411,11.271
						c-1.563,0.743-3.757,2.12-6.583,4.128c-2.159,1.636-4.018,2.862-5.58,3.683c-14.506-0.075-27.711-4.167-39.61-12.274
						c-11.903-7.884-17.854-17.854-17.854-29.903c0-19.64,13.574-38.458,40.729-56.461c12.423,1.114,22.947,1.674,31.577,1.674
						C1378.35,701.452,1384.115,701.304,1389.248,701.005z M1341.379,718.971c-3.944,6.621-5.914,13.465-5.914,20.531
						c0,19.268,9.854,31.021,29.568,35.26c1.858-7.438,2.79-14.729,2.79-21.87c0-11.454-2.717-19.675-8.146-24.659
						C1354.323,723.322,1348.222,720.236,1341.379,718.971z"/>
					<path d="M1417.031,721.202v-13.726c9.82-1.785,21.795-4.799,35.931-9.038l0.446,17.741
						c7.734-7.884,13.464-13.798,17.185-17.741c19.711,3.646,30.834,9.747,33.363,18.3c4.686-5.728,10.338-11.827,16.961-18.3
						c9.373,0.299,17.405,1.936,24.102,4.909c6.545,2.901,11.047,6.622,13.502,11.158c2.455,4.538,3.682,10.824,3.682,18.857
						c0,6.176-0.444,13.912-1.338,23.21c-0.598,6.547-0.893,11.085-0.893,13.612c0,1.86,0.184,5.69,0.557,11.493
						c-8.854,8.108-21.164,16.477-36.934,25.105c0.893-5.729,1.635-15.359,2.232-28.899l0.223-2.565
						c0.371-6.845,0.557-12.199,0.557-16.068c0-10.339-1.041-17.965-3.123-22.875c-2.157-5.058-5.653-9.854-10.489-14.394
						c-3.123,7.886-5.097,12.607-5.912,14.171c0.295,5.952,0.444,13.8,0.444,23.544c0,12.051-0.299,22.65-0.893,31.802
						c-17.26,2.9-28.641,5.54-34.145,7.922c0.071-4.983,0.11-9.373,0.11-13.167c0-33.475-3.869-54.414-11.604-62.82l-7.144,12.721
						l1.451,56.685c-20.682,2.008-34.441,3.645-41.285,4.909C1416.028,774.093,1417.031,748.578,1417.031,721.202z"/>
				</g>
				<g id="c_gears">
					<g>
						<g id="spring_1_">
							<path fill="#C7332D" d="M1152.961,320.766c-0.981-0.314-1.906-0.792-2.764-1.429c-1.974-1.47-3.174-3.465-3.486-5.805
								c-0.692-5.205,2.826-11.974,11.961-21.677c5.235-5.544,12.011-9.484,19.311-11.181c-0.662-4.912-3.134-9.075-7.08-11.825
								c-4.1-2.998-9.494-4.15-15.335-3.315c0.091,7.135-2.445,14.407-7.062,20.819c-5.69,7.861-11.716,15.322-18.237,16.468
								c-2.36,0.423-4.691-0.008-6.737-1.278c-2.119-1.299-3.527-3.204-4.064-5.511c-1.194-5.15,1.701-12.199,9.92-22.651
								c4.658-5.956,11.055-10.476,18.259-12.81c-1.104-4.712-3.827-8.562-7.79-10.975c-4.396-2.332-9.78-2.767-15.328-1.265
								c1.156,7.076-0.291,14.635-3.965,21.606c-4.543,8.548-9.521,16.725-15.83,18.645c-2.303,0.702-4.695,0.541-6.896-0.46
								c-2.304-1.042-3.964-2.763-4.825-5.004c-1.912-4.987-0.009-12.355,6.638-23.759c3.778-6.508,9.471-11.792,16.248-15.003
								c-1.909-4.725-5.382-8.314-9.91-10.173c-4.788-2.095-10.377-2.103-15.888-0.068c1.876,6.996,1.186,14.675-1.807,21.929
								c-3.671,8.899-7.859,17.466-14.045,19.943c-2.241,0.901-4.645,0.96-6.976,0.139c-2.39-0.838-4.215-2.407-5.291-4.551
								c-2.375-4.774-1.168-12.287,4.328-24.292c3.133-6.825,8.294-12.596,14.763-16.391c-2.272-4.372-5.885-7.575-10.354-9.13
								c-0.236-0.055-0.475-0.11-0.712-0.165c-4.971-1.463-10.479-0.793-15.619,1.9c2.938,6.738,3.407,14.467,1.512,22.031
								c-2.359,9.318-5.333,18.348-11.115,21.549c-2.106,1.167-4.441,1.513-6.902,0.98c-2.492-0.54-4.539-1.879-5.904-3.89
								c-3.061-4.478-2.909-12.087,0.799-24.666c2.134-7.192,6.371-13.556,12.162-18.101c-3.051-4.222-7.362-7.004-12.291-7.88
								c-5.11-1.033-10.682,0.165-15.521,3.278c3.606,6.448,4.86,14.112,3.72,21.84c-1.421,9.49-3.505,18.747-8.979,22.451
								c-1.99,1.348-4.313,1.874-6.811,1.582c-2.536-0.321-4.701-1.479-6.258-3.362c-3.481-4.201-4.063-11.8-1.602-24.655
								c1.384-7.323,4.956-14.044,10.301-19.117c-3.468-3.96-8.047-6.366-13.036-6.801c-0.624-0.065-1.249-0.129-1.873-0.192
								c-4.619,0.026-9.181,1.76-13.091,4.986c4.446,6.003,6.687,13.484,6.532,21.294c-0.215,9.598-1.143,19.037-6.131,23.291
								c-1.819,1.555-4.153,2.334-6.578,2.304c-2.585-0.049-4.87-0.969-6.658-2.676c-3.98-3.815-5.482-11.294-4.658-24.317
								c0.446-7.437,3.121-14.498,7.747-20.101c-3.955-3.525-8.814-5.402-13.85-5.299c-0.137,0.011-0.295,0.003-0.442,0.007
								c-5.167,0.107-10.056,2.305-13.985,6.233c5.05,5.6,8.044,12.855,8.648,20.637c0.73,9.571,0.708,19.047-3.855,23.724
								c-1.663,1.704-3.84,2.691-6.318,2.862c-2.534,0.179-4.929-0.54-6.866-2.078c-4.321-3.433-6.521-10.749-7.029-23.796
								c-0.276-7.453,1.685-14.713,5.707-20.693c-4.135-3.054-8.932-4.518-13.701-4.158c-0.242,0.045-0.484,0.09-0.729,0.136
								c-5.205,0.644-9.849,3.433-13.208,7.887c5.854,4.92,9.906,11.731,11.649,19.354c2.162,9.344,3.501,18.712-0.386,23.929
								c-1.406,1.896-3.435,3.145-5.871,3.621c-2.578,0.492-4.972,0.063-7.093-1.222c-4.757-2.879-7.962-9.851-10.361-22.693
								c-1.383-7.327-0.533-14.742,2.528-21.14c-4.75-2.606-10.042-3.364-14.813-2.238c-5.188,1.118-9.544,4.322-12.457,9.076
								c6.324,4.359,11.041,10.776,13.529,18.218c3.062,9.142,5.271,18.364,1.935,23.854c-1.219,2-3.1,3.407-5.462,4.085
								c-2.438,0.711-4.9,0.5-7.146-0.598c-4.986-2.432-8.825-9.098-12.505-21.662c-2.09-7.137-2.009-14.58,0.395-21.237
								c-4.998-2.195-10.301-2.535-14.951-0.972c-0.37,0.123-0.739,0.247-1.109,0.37c-0.012-0.003-0.024-0.006-0.036-0.009
								c-4.407,1.79-7.882,5.243-9.957,9.866c6.827,3.612,12.34,9.436,15.778,16.539c4.216,8.698,7.563,17.587,4.934,23.41
								c-0.96,2.118-2.658,3.723-4.921,4.653c-2.366,0.968-4.813,1.021-7.155,0.177c-5.259-1.887-9.876-8.076-15.088-20.1
								c-2.985-6.857-3.871-14.214-2.371-21.027c-5.208-1.596-10.477-1.356-14.933,0.733c-4.786,2.088-8.258,6.037-9.976,11.205
								c7.139,2.999,13.187,8.31,17.285,15.065c5.024,8.282,9.196,16.833,7.137,22.839c-0.746,2.193-2.275,3.932-4.432,5.045
								c-2.214,1.151-4.639,1.421-7.053,0.783c-5.359-1.424-10.508-7.182-16.876-18.67c-3.613-6.551-5.226-13.782-4.436-20.684
								c-5.157-1.114-10.152-0.532-14.244,1.676c-0.188,0.13-0.374,0.259-0.562,0.389c-4.336,2.595-7.17,6.875-8.095,12.134
								c7.521,2.076,14.287,6.567,19.294,12.721c6.167,7.562,11.479,15.512,10.277,21.662c-0.438,2.25-1.708,4.147-3.685,5.506
								c-2.001,1.402-4.366,1.961-6.835,1.62c-5.481-0.762-11.34-5.831-19.281-16.375c-4.508-6.021-7.154-12.932-7.401-19.798
								c-5.433-0.478-10.454,0.854-14.248,3.756c-4.736,3.425-10.046,11.269-9.945,17.654c0.196,13.726,7.958,28.702,12.653,34.074
								c-1.78,1.429-3.549,2.867-5.309,4.313c-5.641-6.297-13.629-23.538-14.538-37.501c-0.576-8.383,6.139-18.559,12.741-23.343
								c5.21-4.009,11.976-5.945,19.157-5.494c1.311-6.568,5.029-12.096,10.716-15.747c0.276-0.195,0.554-0.389,0.829-0.584
								c5.83-3.396,12.88-4.494,19.97-3.127c2.401-6.627,7.299-11.951,13.765-14.779c6.109-2.865,13.255-3.362,20.173-1.403
								c3.065-6.44,8.408-11.223,15.269-13.528c0.372-0.125,0.744-0.249,1.116-0.373c0.057,0.009,0.11,0.019,0.166,0.028
								c6.271-1.809,12.952-1.352,19.18,1.223c3.936-6.055,10.018-10.325,17.023-11.835c6.679-1.608,13.787-0.673,20.113,2.614
								c4.342-5.482,10.389-9.053,17.287-10.129c0.021-0.013,0.044-0.025,0.064-0.038c0.355-0.062,0.71-0.124,1.066-0.185
								c6.885-0.802,13.834,1.058,19.606,5.122c5.382-5.141,12.278-8,19.604-7.965c0.013,0,0.024,0,0.047-0.001
								c6.924-0.141,13.563,2.268,18.866,6.793c5.877-4.628,12.976-6.799,20.337-6.169c0.667,0.117,1.334,0.234,2.001,0.353
								c6.214,0.976,11.772,3.983,16.018,8.607c6.439-3.925,13.991-5.36,21.009-3.936c6.782,1.204,12.716,4.856,16.833,10.319
								c6.531-3.233,13.657-4.059,20.395-2.289c0.023-0.001,0.048-0.002,0.072-0.004c0.343,0.083,0.686,0.166,1.026,0.25
								c6.61,2.056,11.916,6.403,15.163,12.317c7.257-2.491,14.783-2.321,21.382,0.58c6.25,2.576,11.045,7.335,13.686,13.473
								c7.206-1.777,14.386-1.041,20.491,2.109c0.005-0.005,0.008-0.01,0.012-0.015c0.023,0.017,0.052,0.03,0.08,0.047
								c0.188,0.113,0.381,0.226,0.57,0.338c5.527,3.366,9.304,8.482,10.896,14.607c7.609-0.873,14.982,0.878,20.521,4.943
								c5.436,3.798,8.874,9.349,9.883,15.765c7.317-0.231,14.032,1.902,19.092,6.086c0.022,0.008,0.047,0.016,0.069,0.023
								c0.27,0.213,0.537,0.426,0.807,0.64c5.771,5.27,8.292,12.625,7.176,20.56c-1.237,7.838-22.03,43.194-28.317,49.285
								c-1.547-1.561-3.104-3.116-4.676-4.663c5.252-5.191,24.938-39.537,25.896-46.002c0.736-5.671-0.876-10.798-4.582-14.436
								c-0.19-0.147-0.381-0.293-0.569-0.44c-3.683-3.246-8.868-4.839-14.69-4.522c-0.627,7.088-3.854,14.087-9.032,20.051
								c-6.379,7.332-13.026,14.241-19.56,14.847C1155.428,321.284,1154.156,321.147,1152.961,320.766z M1177.78,287.684
								c-5.069,1.632-9.781,4.61-13.608,8.591c-9.399,9.828-10.899,14.584-10.642,16.762c0.073,0.591,0.299,0.975,0.771,1.33
								c0.455,0.331,0.878,0.445,1.453,0.391c4.627-0.449,12.314-9.651,14.906-12.652
								C1174.379,297.716,1176.87,292.739,1177.78,287.684z M766.859,280.598c0.61,4.914,2.669,9.813,5.888,14.214
								c7.989,10.861,12.331,13.567,14.653,13.888c0.616,0.085,1.069-0.008,1.563-0.359c0.474-0.325,0.693-0.675,0.801-1.222
								c0.828-4.351-6.734-13.718-9.292-16.761C776.779,285.913,772.067,282.533,766.859,280.598z M1148.134,267.603
								c-4.949,2.073-9.376,5.443-12.791,9.723c-8.487,10.606-9.534,15.482-9.073,17.643c0.13,0.583,0.396,0.951,0.917,1.271
								c0.489,0.304,0.918,0.368,1.479,0.269c4.614-0.834,11.454-10.676,13.756-13.888
								C1145.736,277.915,1147.726,272.729,1148.134,267.603z M797.078,261.997c-0.121,4.982,1.194,10.128,3.767,14.905
								c6.373,11.808,10.332,15.025,12.601,15.629c0.605,0.165,1.066,0.114,1.618-0.164c0.506-0.266,0.788-0.593,0.964-1.123
								c1.438-4.265-4.753-14.503-6.855-17.84C806.142,268.521,801.949,264.569,797.078,261.997z M1117.451,251.293
								c-4.608,2.675-8.522,6.579-11.313,11.272c-6.89,11.592-7.267,16.57-6.496,18.672c0.222,0.569,0.536,0.904,1.095,1.161
								c0.534,0.239,0.959,0.26,1.521,0.088c4.451-1.378,9.691-11.669,11.708-15.539
								C1116.584,261.848,1117.811,256.438,1117.451,251.293z M830.089,246.292c-0.623,4.951,0.18,10.202,2.291,15.202
								c5.191,12.342,8.87,15.896,11.095,16.7c0.589,0.219,1.05,0.206,1.635-0.024c0.533-0.22,0.848-0.521,1.075-1.041
								c1.849-4.135-3.354-14.882-5.123-18.395C838.496,253.585,834.705,249.276,830.089,246.292z M1083.32,237.692
								c-4.343,3.067-7.863,7.299-10.183,12.22c-5.748,12.214-5.664,17.2-4.69,19.205c0.263,0.542,0.605,0.846,1.189,1.048
								c0.546,0.196,1.001,0.183,1.546-0.042c4.373-1.778,8.746-12.854,10.207-16.492
								C1083.515,248.327,1084.203,242.814,1083.32,237.692z M864.5,234.146c-1.277,4.887-1.161,10.208,0.303,15.396
								c3.602,12.886,6.835,16.812,8.929,17.847c0.563,0.276,1.011,0.322,1.629,0.149c0.553-0.159,0.901-0.422,1.192-0.906
								c2.342-3.896-1.464-15.188-2.76-18.894C871.921,242.343,868.712,237.633,864.5,234.146z M1048.202,227.88
								c-3.815,3.573-6.677,8.215-8.276,13.414c-3.923,12.806-3.141,17.757-1.881,19.652c0.35,0.506,0.732,0.765,1.338,0.896
								c0.556,0.122,1.008,0.059,1.527-0.223c4.082-2.291,6.856-13.847,7.776-17.648
								C1050.008,238.448,1049.859,232.88,1048.202,227.88z M900.612,225.195c-1.771,4.738-2.19,10.058-1.255,15.388
								c2.31,13.146,5.169,17.351,7.174,18.572c0.538,0.33,1.059,0.407,1.614,0.295c0.573-0.113,0.952-0.349,1.286-0.815
								c2.739-3.717,0.024-15.27-0.914-19.062C907.188,234.033,904.459,229.053,900.612,225.195z M1011.413,221.721
								c-3.465,3.914-5.843,8.787-6.903,14.087c-2.648,13.111-1.403,17.982,0.041,19.763c0.393,0.472,0.799,0.698,1.416,0.776
								c0.605,0.097,1.009-0.028,1.502-0.363c3.869-2.638,5.493-14.393,6.031-18.262
								C1014.269,232.083,1013.565,226.546,1011.413,221.721z M937.023,220.188c-2.476,4.495-3.692,9.73-3.554,15.137
								c0.359,13.332,2.626,17.854,4.43,19.309c0.497,0.391,1.037,0.55,1.568,0.489c0.573-0.04,0.979-0.227,1.386-0.642
								c3.208-3.329,2.208-15.161,1.86-19.054C942.217,229.765,940.254,224.488,937.023,220.188z M974.463,219.03
								c-2.931,4.255-4.667,9.362-5.043,14.758c-1.039,13.995,1.146,18.293,2.508,19.62c0.46,0.445,0.914,0.578,1.566,0.629
								c0.563,0.003,0.978-0.152,1.403-0.521c3.514-3.027,3.672-14.902,3.714-18.81C978.657,229.014,977.24,223.585,974.463,219.03z
								"/>
						</g>
						<g>
							<path d="M358.656,568.123c-14.266,1.992-27.42,3.661-39.47,4.964c-12.053,1.305-23.893,2.302-35.532,2.99
								c-34.852,2.382-64.552,1.99-89.219-1.589c-24.555-3.599-42.118-9.347-52.581-17.585
								c-10.598-8.311-17.691-19.553-21.188-33.798c-6.373-25.961-2.161-51.074,13.182-75.209
								c15.233-23.978,40.938-40.093,76.701-47.659c21.884-4.627,45.099-4.913,69.396-0.792
								c12.224,13.576,24.22,28.822,35.979,45.736c4.374-36.547,6.272-64.976,5.273-85.283c-4.714-9.416-9.464-18.82-14.225-28.22
								L302,292.1h-29.252l-4.155,37.431c-1.14,0.195-2.279,0.391-3.398,0.606c-5.365,1.032-10.686,2.298-15.968,3.747
								l-17.123-33.37l-27.488,10.005l8.909,36.635c-6.276,2.978-12.478,6.276-18.598,9.889l-25.799-29.808l-24.334,16.236
								l18.479,35.682c-4.889,3.982-9.538,8.104-13.947,12.365l-37.256-21.534l-17.684,23.303l29.518,28.035
								c-3.328,4.798-6.424,9.727-9.286,14.784l-37.977-9.229l-10.397,27.342l32.935,16.895c-1.594,4.766-3,9.497-4.226,14.192
								l-36.73,3.065L57,517.597l32.001,4.911c-0.313,5.612-0.356,11.171-0.122,16.675l-37.321,14.194l6.907,28.426l36.563-4.703
								c1.428,4.777,3.14,9.317,5.145,13.613l-25.538,26.011l18.157,22.938l30.312-18.967c4.193,3.53,8.775,6.741,13.743,9.634
								l-8.325,31.546l27.134,10.936l15.958-29.667c5.914,1.083,12.175,1.782,18.775,2.117l8.427,34.841l29.07-3.274l-0.06-33.14
								c5.924-0.707,12.045-1.614,18.377-2.733l9.542,33.231l28.903-4.504l-1.622-36.73c5.708-1.419,11.456-2.921,17.244-4.51
								l13.203,33.834l28.366-7.151l-5.166-37.585c4.883-1.582,9.796-3.219,14.738-4.911l22.035,27.574l24.953-15.271
								l-15.683-33.423c5.229-9.82,10.494-19.634,15.833-29.431C386.216,564.126,372.92,566.128,358.656,568.123z"/>
							<path d="M517.537,403.401c-6.354-7.248-13.999-11.548-22.91-12.882c2.445-5.323,4.905-10.644,7.381-15.963
								c-7.882,1.448-16.766,2.833-26.646,4.176c-13.333,1.815-29.691,3.297-49.106,4.573
								c-38.042,32.139-53.956,62.667-49.238,90.699c2.902,17.235,14.227,29.95,33.744,38.391
								c19.573,8.77,39.993,11.645,61.525,8.683c2.15-1.508,4.659-3.66,7.538-6.457c3.797-3.472,6.794-5.898,8.975-7.286
								c12.111-7.973,20.587-14.563,25.339-19.855c4.668-5.061,8.743-12.696,12.25-22.913c3.381-10.311,4.406-21.136,3.013-32.48
								C527.956,420.311,524.021,410.741,517.537,403.401z M479.318,485.458c-30.362-1.96-47.745-16.452-51.979-44.08
								c-1.541-10.126-0.041-20.392,4.581-30.79c10.754,0.247,20.745,3.323,29.923,9.212c9.309,5.983,15.062,17.227,17.327,33.673
								C480.582,463.729,480.616,474.391,479.318,485.458z"/>
							<path d="M688.487,377.083c-1.576-3.988-4.239-7.839-8.007-11.547c-3.891-3.804-8.636-6.51-14.228-8.107
								c-5.825-1.575-14.174-2.611-25.043-3.051c-4.669,3.177-9.322,6.362-13.967,9.556c-2.503,1.858-5.064,3.618-7.693,5.275
								c-7.865,5.194-13.295,8.879-16.324,11.024c-0.705-7.028-1.41-14.056-2.115-21.083c-5.384,2.112-10.761,4.236-16.129,6.372
								c-7.243,3.146-14.469,6.314-21.679,9.503c-2.652,1.272-5.17,2.425-7.554,3.454c-2.386,1.031-4.519,1.955-6.399,2.768
								c-1.884,0.815-3.546,1.525-4.985,2.126c2.467,15.129,4.813,32.281,7.047,51.451c1.475,12.639,2.947,25.276,4.422,37.916
								c0.213,1.82,0.75,4.96,1.606,9.42c0.146,1.23,0.287,2.464,0.432,3.696c0.149,1.282,0.499,5.262,1.053,11.927
								c0.1,1.835,0.477,5.535,1.126,11.104c18.938-6.877,37.49-11.478,55.541-13.827c-3.366-30.817-6.739-61.638-10.119-92.455
								c2.117-2.435,4.238-4.865,6.364-7.295c0.923-1.174,1.847-2.348,2.771-3.522c3.44-3.801,5.319-5.93,5.621-6.393
								c10.98,14.443,17.312,31.846,19.17,52.139c1.55,16.858,0.393,40.46-3.216,70.801c5.439-2.681,12.311-7.38,20.677-14.069
								c1.465-1.156,2.932-2.313,4.399-3.471c9.731-7.229,19.523-14.42,29.377-21.568c-0.598-10.552-0.4-23.222,0.625-38.01
								c0.979-13.917,1.102-25.93,0.334-36.038C690.948,386.685,689.912,380.652,688.487,377.083z"/>
							<path d="M815.07,346.186c-2.534,0.427-7.561,0.794-15.08,1.13c-10.994,0.495-18.345,0.708-22.063,0.572
								c0.4-8.01,0.521-13.737,0.348-17.185c-0.098-1.938-0.251-3.765-0.453-5.483c-7.977,1.487-20.125,3.471-36.417,6.081
								c-9.596,1.451-15.076,2.355-16.456,2.659c0.345,4.354,0.688,8.708,1.029,13.062c0.163,3.394,0.327,6.788,0.492,10.179
								c0.068,1.076,0.14,2.152,0.211,3.228c-5.472,10.191-10.893,20.395-16.261,30.611c6.325-1.526,12.122-2.512,17.38-2.967
								c0.064,4.534-0.274,13.365-1,26.487c-0.755,12.695-0.97,21.248-0.675,25.658c1.821,26.714,21.336,43.527,58.124,51.327
								c8.886-14.601,17.89-29.167,27.013-43.698c-11.27-2.644-19.303-6.566-24.089-11.838c-4.906-5.369-7.616-12.731-8.102-22.102
								c-0.299-5.815-0.465-16.711-0.479-32.691c13.495-1.23,24.064-2.508,31.709-3.913
								C811.088,374.142,812.656,363.767,815.07,346.186z"/>
							<path d="M916.986,342.19c-4.723,2.324-7.98,5.016-9.784,8.061c-2.031,3.16-3.865,7.611-5.499,13.353
								c-2.071,6.937-4.417,14.096-7.023,21.479c-1.207-12.435-2.424-24.868-3.652-37.301c-17.552-1.165-35.124-2.203-52.715-3.112
								c0.126,15.533,0.257,31.065,0.393,46.597c0.022,13.917,0.24,26.696,0.646,38.333c0.621,17.782,4.078,29.744,10.32,35.906
								c6.13,6.063,11.945,10.313,17.479,12.751c5.315,2.561,19.542,3.499,42.706,3.146c6.567-15.195,12.186-29.172,16.791-41.944
								c-7.778,0.078-16.753-1.53-26.973-4.803c-0.886-5.269-1.752-12.749-2.611-22.439c1.599-5.852,6.836-14.524,15.835-25.974
								c4.821,1.23,14.165,6.012,27.894,14.447c4.25-13.504,7.814-25.812,10.662-36.926c1.881-6.853,3.771-13.704,5.675-20.554
								c-8.688-3.115-16.646-4.638-23.833-4.582C926.912,338.678,921.476,339.87,916.986,342.19z"/>
							<path d="M1100.004,365.281c-4.683-4.172-9.709-7.27-15.07-9.289c-5.485-1.803-16.838-4.459-34.111-7.802
								c-19.119-3.808-29.583-5.833-31.312-6.3c-22.503,16.255-36.976,29.844-43.777,40.487
								c-7.032,10.758-10.507,24.022-10.521,39.764c-0.012,10.895,0.939,23.077,2.822,36.561c1.33,8.632,2.204,14.995,2.643,19.092
								c7.014,3.146,17.021,6.423,29.99,9.912c17.089-16.629,30.478-29.625,39.91-39.121c9.441-9.494,15.215-15.696,17.217-18.664
								c-0.706,25.87-2.273,46.162-4.661,60.876c27.754-6.921,46.969-10.752,57.398-11.931c-0.793-7.587-1.073-14.186-0.837-19.788
								c0.95-15.825,1.905-31.649,2.863-47.476c0.52-12.173-0.268-21.867-2.376-29.078
								C1108.077,375.207,1104.687,369.455,1100.004,365.281z M1039.805,422.599c-6.3,8.112-12.594,15.405-18.896,21.876
								c-0.881-21.207-1.782-42.411-2.71-63.62c19.198,3.867,31.81,10.245,37.852,18.921
								C1051.524,406.885,1046.102,414.487,1039.805,422.599z"/>
							<path d="M1239.827,350.041c-4.885,4.49-10.944,9.006-18.166,13.563c-7.224,4.561-15.786,9.255-25.67,14.119
								c-0.089-7.462-0.681-16.956-1.793-28.482c-7.402,1.361-15.308,2.519-23.711,3.49c-8.401,0.973-21.399,2.321-38.951,4.187
								c7.414,19.568,9.838,52.576,7.475,98.988c-0.419,8.295-1.236,18.833-2.438,31.62c-1.203,12.788-2.941,27.465-5.191,44.032
								c-2.254,16.568-3.761,27.37-4.552,32.407c14.997,2.08,29.973,4.26,44.924,6.538c5.409-23.865,14.323-55.829,27.139-95.81
								c4.018,1.947,8.028,3.903,12.032,5.867c7.13,3.7,14.236,7.424,21.323,11.169c33.229-21.934,51.807-48.654,54.776-80.892
								c1.671-18.143-1.826-31.523-10.581-40.088C1267.461,362.17,1255.254,355.235,1239.827,350.041z M1226.759,435.505
								c-0.405,5.378-1.278,10.934-2.612,16.673c-12.692-4.086-22.952-7.867-30.756-11.409c0.504-6.773,1.008-13.55,1.512-20.323
								c0.391-5.916,0.234-12.195-0.475-18.834c7.439-5.238,14.895-11.05,22.377-17.438
								C1225.384,393.115,1228.67,410.241,1226.759,435.505z"/>
							<path d="M1377.479,367.229c1.724-7.833,2.792-13.461,3.191-16.891c0.224-1.928,0.376-3.755,0.461-5.483
								c-8.125,0.144-20.449,0.087-36.963-0.038c-9.713-0.159-15.271-0.175-16.685-0.104c-0.382,4.35-0.764,8.701-1.146,13.052
								c-0.4,3.373-0.803,6.747-1.201,10.122c-0.109,1.072-0.218,2.145-0.326,3.218c-7.088,9.144-14.126,18.309-21.116,27.495
								c6.496-0.457,12.377-0.47,17.644-0.047c-0.687,4.483-2.484,13.138-5.373,25.957c-2.851,12.396-4.479,20.794-4.916,25.192
								c-2.626,26.646,13.842,46.458,48.876,60.248c11.19-12.926,22.498-25.799,33.917-38.616
								c-10.691-4.475-17.979-9.677-21.83-15.668c-3.956-6.107-5.41-13.819-4.337-23.139c0.668-5.784,2.308-16.559,4.939-32.319
								c13.529,1.023,24.186,1.515,31.966,1.397c1.301-2.988,4.57-12.959,9.867-29.897c-2.573,0.001-7.601-0.471-15.084-1.386
								C1388.424,368.987,1381.127,367.979,1377.479,367.229z"/>
							<path d="M1483.452,304.786c-8.919-1.275-16.897,0.557-23.892,5.479c-7.114,4.905-11.193,11.436-12.281,19.556
								c-1.088,8.125,1.129,15.435,6.608,21.951c5.465,6.623,12.505,10.54,21.162,11.778c8.653,1.238,16.568-0.541,23.792-5.349
								c7.103-4.825,11.284-11.221,12.502-19.217c1.298-8.526-0.776-16.044-6.266-22.536
								C1499.475,309.943,1492.252,306.044,1483.452,304.786z"/>
							<path d="M1416.134,415.947c3.996,1.273,8.039,2.181,12.129,2.721c5.453,0.72,10.685,0.501,15.707-0.666
								c-1.601,13.44-3.206,26.879-4.813,40.318c-3.636,26.603-7.154,46.527-10.527,59.779c17.047,0.36,37.22,0.285,60.574-0.058
								c1.818-21.43,3.063-35.203,3.77-41.312c1.043-9.44,2.082-18.883,3.117-28.322c0.145-1.724,0.431-3.969,0.854-6.742
								c0.943-6.181,1.623-11.043,2.048-14.577c0.08-1.297,0.244-2.744,0.488-4.343c0.779-3.972,1.56-7.943,2.339-11.915
								c1.432-9.38,2.86-18.761,4.291-28.142c-31.859,8.56-59.329,13.257-82.768,13.801
								C1420.93,402.974,1418.528,409.46,1416.134,415.947z"/>
							<path d="M1663.105,429.149c4.036-4.257,8.082-8.503,12.141-12.744c-7.949-1.163-16.832-2.708-26.645-4.612
								c-13.241-2.567-29.241-6.422-48.063-11.45c-46.392,18.218-71.241,42.027-75.774,70.088
								c-2.783,17.254,3.855,32.933,19.637,47.192c15.73,14.588,34.163,23.869,55.546,27.984c2.525-0.737,5.599-1.971,9.229-3.692
								c4.717-2.067,8.341-3.402,10.855-4.016c14.061-3.657,24.228-7.177,30.44-10.657c6.06-3.29,12.387-9.211,19.004-17.758
								c6.525-8.677,10.979-18.599,13.304-29.789c2.412-11.613,1.746-21.941-2.052-30.979
								C1677.021,439.813,1671.14,433.279,1663.105,429.149z M1628.199,483.797c-1.952,10.166-5.346,20.275-10.136,30.338
								c-28.184-11.615-40.002-30.921-35.146-58.446c1.791-10.085,6.508-19.325,14.229-27.688
								c10.12,3.689,18.611,9.813,25.428,18.339C1629.489,454.996,1631.337,467.493,1628.199,483.797z"/>
							<path d="M1851.944,478.903c-0.22-4.286-1.521-8.793-3.922-13.521c-2.487-4.856-6.141-8.953-10.959-12.271
								c-5.047-3.372-12.671-7.047-22.89-10.974c-5.471,1.501-10.931,3.018-16.38,4.543c-2.981,0.951-5.989,1.791-9.026,2.515
								c-9.163,2.382-15.52,4.121-19.092,5.176c1.59-6.882,3.179-13.764,4.769-20.646c-5.805,0.266-11.604,0.543-17.402,0.836
								c-7.903,0.646-15.799,1.317-23.681,2.02c-2.931,0.35-5.696,0.631-8.294,0.838c-2.601,0.209-4.926,0.398-6.977,0.563
								c-2.056,0.165-3.863,0.303-5.424,0.406c-2.521,15.12-5.807,32.116-9.845,50.99c-2.662,12.442-5.323,24.885-7.985,37.327
								c-0.385,1.794-0.885,4.938-1.5,9.438c-0.261,1.214-0.521,2.427-0.779,3.639c-0.271,1.265-1.216,5.144-2.835,11.633
								c-0.494,1.771-1.327,5.395-2.5,10.878c20.22-0.415,39.35,1.203,57.291,4.798c6.709-30.268,13.411-60.538,20.104-90.809
								c2.8-1.622,5.603-3.241,8.407-4.857c1.256-0.813,2.514-1.628,3.772-2.439c4.498-2.49,6.972-3.9,7.409-4.241
								c5.813,17.217,6.244,35.738,1.485,55.552c-3.946,16.464-12.643,38.438-25.841,66.003c6.043-0.784,14.102-3.017,24.227-6.649
								c1.771-0.625,3.539-1.246,5.312-1.866c11.603-3.707,23.252-7.354,34.949-10.938c2.825-10.184,7.092-22.117,12.828-35.787
								c5.413-12.86,9.396-24.194,11.918-34.015C1851.201,488.789,1852.156,482.742,1851.944,478.903z"/>
						</g>
					</g>
				</g>
			</g>
			<g id="cart">
				<rect x="846.128" y="791.446" width="207.535" height="5.32"/>
				<g>
					<g>
						<path d="M898.819,728.888c-6.387,16.693,21.141,15.527,24.747,3.693c1.646-5.396-0.911-12.107-4.379-16.234
							c-4.702-5.594-10.67-6.484-17.589-5.355c-5.815,0.948-11.793,3.5-14.94,8.693c-3.76,6.207-2.539,15.521-1.791,22.298
							c1.197,10.847,5.625,21.511,9.478,31.623c1.598,4.192,4.082,9.388,3.194,13.997c-0.716,1.08-0.25,1.426,1.399,1.033
							c-1.125-0.158-1.885-1.414-2.36-2.297c-0.594-1.104-0.762-2.608-0.284-3.76c0.602-1.449-7.655-0.662-8.57,1.543
							c-4.408,10.633,18.089,10.416,18.632,0.592c0.431-7.797-4.413-16.111-6.956-23.281c-3.003-8.467-5.535-17.055-6.227-26.041
							c-0.461-5.988-0.715-12.678,2.507-17.993c3.672-6.063,10.88-2.909,14.68,1.146c3.474,3.705,5.252,9.428,4.857,14.432
							c-0.247,3.121-2.441,6.063-5.962,4.1c-3.376-1.883-3.028-6.684-1.863-9.729C907.974,725.819,899.661,726.683,898.819,728.888
							L898.819,728.888z"/>
					</g>
				</g>
				<path d="M860.512,617.695l0.021-12.364l-0.009,0.008c0.007-0.211,0.032-0.417,0.032-0.63
					c0.001-9.862-7.994-17.857-17.858-17.857c-9.86,0-17.856,7.995-17.856,17.857c0,8.802,6.373,16.098,14.75,17.57l0.004,5.27
					l-0.004,5.27c-8.377,1.474-14.749,8.771-14.749,17.567c0,9.863,7.996,17.859,17.856,17.859c9.863,0,17.858-7.996,17.858-17.859
					c0-0.211-0.024-0.416-0.032-0.626l0.008,0.007l-0.021-12.363l29.632,0.072v-9.684v-0.49v-9.682L860.512,617.695z
					 M833.886,604.709c0-4.859,3.953-8.813,8.812-8.813c4.859,0,8.813,3.952,8.813,8.813s-3.953,8.813-8.813,8.813
					C837.84,613.521,833.886,609.568,833.886,604.709z M842.698,659.199c-4.856,0-8.812-3.953-8.812-8.813
					c0-4.855,3.953-8.811,8.812-8.811c4.859,0,8.813,3.953,8.813,8.811C851.51,655.245,847.557,659.199,842.698,659.199z"/>
				<g>
					<path d="M996.418,743.634c-3.851,0-6.972,3.119-6.972,6.969c0,3.852,3.121,6.973,6.972,6.973c3.849,0,6.971-3.121,6.971-6.973
						C1003.389,746.753,1000.267,743.634,996.418,743.634z M996.418,754.558c-2.184,0-3.955-1.771-3.955-3.955
						c0-2.18,1.771-3.951,3.955-3.951c2.181,0,3.951,1.771,3.951,3.951C1000.369,752.784,998.599,754.558,996.418,754.558z"/>
					<g>
						<g>
							<path d="M999.093,743.638c0.081-2.734,0.143-5.475,0.192-8.211c0.077-3.989-0.848-9.23,0.569-12.989
								c0.905-2.401,2.151-4.276,4.795-2.812c1.704,0.945,1.914,3.129,1.673,4.83c-0.185,1.301-0.775,2.561-1.447,3.674
								c-0.094,0.113-0.188,0.227-0.278,0.338c1.776-0.323,2.005-0.916,0.68-1.771c-0.345-0.518-0.724-2.263-0.029-2.662
								c3.352-1.924-1.945-1.771-3.387-0.941c-2.324,1.336-3.637,3.275-1.943,5.813c1.58,2.367,5.628,1.471,7.729,0.521
								c4.269-1.926,6.531-8.521,2.451-11.828c-5.912-4.788-14.153,0.98-16.295,6.662c-1.207,3.201-0.238,8.127-0.29,11.504
								c-0.048,3.145-0.122,6.285-0.216,9.43C993.267,746.253,999.038,745.438,999.093,743.638L999.093,743.638z"/>
						</g>
					</g>
					<g>
						<g>
							<path d="M994.622,745.438c-2.003-2.128-4.021-4.235-6.05-6.341c-2.625-2.723-6.705-5.596-8.337-9.025
								c-1.699-3.574-0.318-12.146,3.729-6.18c0.729,1.076,1.173,2.393,1.401,3.66c0.431,2.355-1.591,0.459,1.313,1.4
								c-1.328-0.434-1.84-1.816-1.486-3.063c0.266-0.934-5.313-0.254-5.695,1.098c-1.646,5.805,8.552,4.963,10.729,1.713
								c3.221-4.809-2.546-9.836-7.223-9.539c-7.604,0.482-11.931,7.012-7.863,13.771c1.776,2.957,5.554,5.582,7.955,8.064
								c2.031,2.1,4.047,4.215,6.051,6.34C990.073,748.323,995.331,746.188,994.622,745.438L994.622,745.438z"/>
						</g>
					</g>
					<g>
						<g>
							<path d="M992.135,749.743c-2.737-0.08-5.477-0.145-8.211-0.195c-3.751-0.07-8.929,0.861-12.449-0.467
								c-1.997-0.754-3.737-2.189-4.874-3.973c-0.587-0.922-0.378-6.393,0.788-6.227c1.324,0.188,2.63,0.849,3.71,1.611
								c0.726,0.514,0.803,1.528,0.933,2.319c-0.138,0.45-0.273,0.899-0.413,1.353c1.723-0.033,1.94-0.525,0.658-1.478
								c-0.747-1.302-6.153,0.929-5.795,1.554c2.439,4.248,12.003,1.021,11.188-3.951c-0.826-5.029-10.186-3.709-13.132-2.416
								c-2.935,1.287-3.877,3.736-4.188,6.777c-0.377,3.691,4.718,6.188,7.572,6.943c3.222,0.855,7.646,0.045,10.975,0.097
								c3.144,0.048,6.285,0.123,9.427,0.216C989.424,751.942,994.898,749.825,992.135,749.743L992.135,749.743z"/>
						</g>
					</g>
					<g>
						<g>
							<path d="M989.596,755.427c-4.284,4.037-8.551,8.104-12.675,12.307c-3.854,3.928-9.323-0.645-7.763-5.346
								c0.269-0.602,0.644-1.129,1.125-1.584c0.201-0.164,0.402-0.33,0.604-0.495c1.098-0.759,1.317-0.834,0.665-0.229
								c1.138,0.42,1.402,1.359,1.558,2.367c0.512,3.354-2.661-0.018,1.541,1.178c-1.246-0.354-6.276,1.685-4.801,2.104
								c4.922,1.396,13.588-5.188,6.153-7.928c-3.704-1.363-12.289,2.514-12.834,6.645c-1.245,9.422,11.405,7.883,16.414,4.873
								c3.046-1.832,5.496-5.141,8.037-7.607c2.375-2.307,4.771-4.592,7.182-6.861C995.888,753.827,990.544,754.532,989.596,755.427
								L989.596,755.427z"/>
						</g>
					</g>
					<g>
						<g>
							<path d="M993.743,757.569c-0.094,3.141-0.161,6.281-0.217,9.426c-0.069,4.074,0.808,9.023-0.974,12.771
								c-0.127,0.271-1.571,2.844-1.795,2.818c-1.418-0.146-2.637-0.809-3.543-1.875c-1.065-1.252-0.893-3.287-0.562-4.75
								c0.271-1.189,0.853-2.338,1.552-3.328c-0.506,0.289-1.011,0.58-1.516,0.869c0.594,0.455,0.975,1.035,1.144,1.74
								c0.315,0.85,0.058,1.953-0.746,2.414c-2.379,1.369,3.437,0.516,4.385-0.029c1.896-1.09,3.4-3.613,1.288-5.5
								c-2.381-2.125-6.037-0.805-8.592,0.348c-4.355,1.967-4.74,9.242-0.654,11.512c6.219,3.452,14.072-1.723,15.695-7.832
								c0.836-3.146,0.063-7.453,0.11-10.711c0.051-3.145,0.124-6.285,0.219-9.428C999.561,755.354,993.788,756.032,993.743,757.569
								L993.743,757.569z"/>
						</g>
					</g>
					<g>
						<g>
							<path d="M998.212,755.769c2.003,2.128,4.021,4.238,6.05,6.344c2.624,2.721,6.706,5.594,8.337,9.023
								c1.698,3.576,0.318,12.146-3.729,6.18c-0.729-1.076-1.173-2.393-1.402-3.662c-0.43-2.354,1.59-0.457-1.312-1.398
								c1.33,0.433,1.841,1.816,1.487,3.064c-0.268,0.932,5.313,0.254,5.695-1.098c1.646-5.805-8.552-4.967-10.729-1.717
								c-3.223,4.809,2.547,9.838,7.224,9.541c7.605-0.48,11.929-7.01,7.864-13.771c-1.774-2.957-5.555-5.582-7.957-8.064
								c-2.028-2.1-4.046-4.213-6.05-6.34C1002.761,752.882,997.503,755.017,998.212,755.769L998.212,755.769z"/>
						</g>
					</g>
					<g>
						<g>
							<path d="M1000.698,751.462c2.737,0.082,5.477,0.144,8.212,0.195c3.751,0.07,8.93-0.861,12.449,0.467
								c1.998,0.754,3.737,2.19,4.874,3.973c0.588,0.92,0.378,6.395-0.787,6.229c-1.324-0.188-2.63-0.85-3.711-1.611
								c-0.726-0.514-0.803-1.529-0.933-2.32c0.138-0.449,0.273-0.9,0.413-1.352c-1.722,0.033-1.939,0.525-0.657,1.477
								c0.747,1.303,6.154-0.928,5.795-1.553c-2.439-4.25-12.004-1.021-11.188,3.951c0.825,5.027,10.187,3.707,13.132,2.416
								c2.936-1.287,3.878-3.738,4.188-6.779c0.378-3.691-4.718-6.188-7.572-6.943c-3.221-0.857-7.646-0.044-10.975-0.096
								c-3.144-0.049-6.286-0.122-9.428-0.217C1003.408,749.265,997.936,751.38,1000.698,751.462L1000.698,751.462z"/>
						</g>
					</g>
					<g>
						<g>
							<path d="M1003.239,745.78c4.284-4.039,8.553-8.104,12.675-12.309c3.854-3.93,9.322,0.646,7.763,5.346
								c-0.268,0.602-0.643,1.131-1.124,1.584c-0.201,0.166-0.403,0.332-0.604,0.495c-1.098,0.759-1.317,0.834-0.664,0.229
								c-1.139-0.418-1.404-1.357-1.559-2.365c-0.513-3.357,2.661,0.018-1.542-1.18c1.246,0.354,6.279-1.682,4.801-2.104
								c-4.925-1.398-13.587,5.191-6.151,7.93c3.704,1.361,12.288-2.514,12.834-6.645c1.242-9.428-11.405-7.883-16.415-4.875
								c-3.048,1.83-5.497,5.141-8.038,7.607c-2.375,2.307-4.771,4.592-7.182,6.863
								C996.947,747.38,1002.291,746.673,1003.239,745.78L1003.239,745.78z"/>
						</g>
					</g>
					<path d="M996.419,709.231c-22.852,0-41.372,18.521-41.372,41.369c0,22.85,18.521,41.373,41.372,41.373
						c22.848,0,41.37-18.523,41.37-41.373C1037.788,727.754,1019.267,709.231,996.419,709.231z M996.418,784.761
						c-18.836,0-34.159-15.32-34.159-34.158c0-18.834,15.323-34.154,34.159-34.154c18.835,0,34.154,15.32,34.154,34.155
						C1030.573,769.438,1015.253,784.761,996.418,784.761z"/>
				</g>
				<g>
					<path d="M964.354,655.956v-55.85c0-3.085-2.501-5.587-5.585-5.587c-3.085,0-5.585,2.502-5.585,5.587v55.85
						c0,3.086,2.5,5.586,5.585,5.586C961.853,661.542,964.354,659.042,964.354,655.956z"/>
					<path d="M924.893,627.643c0-18.375,12.486-33.827,29.433-38.354c-19.31,2.258-34.298,18.663-34.299,38.579
						c0,20.97,16.614,38.05,37.396,38.819C938.922,663.309,924.893,647.12,924.893,627.643z"/>
					<path d="M963.21,589.289c16.945,4.525,29.434,19.979,29.434,38.354c0,19.479-14.029,35.666-32.531,39.045
						c20.782-0.77,37.396-17.85,37.396-38.818C997.508,607.952,982.521,591.547,963.21,589.289z"/>
					<path d="M1069.265,550.54v-0.089h-0.069l-0.568-0.727v-5.301c2.384-0.433,4.66-1.356,6.563-2.821
						c2.182-1.681,2.214-6.116,1.723-8.487c-0.64-3.08-3.666-5.142-6.299-6.355c-5.668-2.616-12.896-2.515-18.988-1.852
						c-1.407,0.152-3.064,0.466-4.438,1.147c-14.039,1.043-65.216,4.749-82.301,4.635c-19.043-0.125-74.582-3.105-92.676-4.102
						c0.186-0.793-1.829-0.86-2.445-0.804c-4.746,0.428-11.19,0.251-15.764-2.463c-2.595-1.54-4.185-5.5-2.99-8.488
						c1.132,0.273,2.164,0.766,3.154,1.368c1.667,1.012,2.545,2.714,0.997,4.245c-1.391,1.376,1.229,1.447,2.041,1.376
						c1.846-0.16,4.443-0.701,5.821-2.064c5.169-5.116-3.598-8.511-7.881-8.739c-6.697-0.354-13.974,2.416-12.978,10.229
						c1.148,9.008,17.401,8.554,23.816,7.975c0.313-0.027,0.641-0.07,0.975-0.121l7.816,42.027h14.368v111.377H851.48
						c-2.28,0-4.128,1.256-4.128,2.808c0,1.554,1.848,2.81,4.128,2.81h20.108c-0.014,0.276-0.03,0.554-0.03,0.835
						c0,9.804,7.835,17.763,17.585,17.994v4.673h141.018V571.131h14.9l5.426-43.002c6.66-0.379,15.377,0.515,17.729,7.316
						c0.604,1.744,0.243,3.629-0.304,5.357c-0.063-0.018-0.13-0.036-0.193-0.053c-2.244-0.597-6.235-2.948-3.69-5.488
						c1.382-1.38-1.219-1.447-2.04-1.376c-1.838,0.159-4.452,0.697-5.819,2.063c-3.595,3.585-0.188,6.65,3.666,7.897
						c1.832,0.594,3.812,0.886,5.792,0.862v5.314l-0.34,0.438h-0.021v0.027l-8.512,10.952l2.563,22.759h15.948l1.13-10.031h0.004
						v-0.037l1.43-12.689L1069.265,550.54z M883.209,701.894c-1.169-0.575-2.25-1.301-3.214-2.156l5.795-5.696L883.209,701.894z
						 M877.971,697.52c-0.701-0.945-1.3-1.971-1.756-3.073l7.315-2.394L877.971,697.52z M875.168,688.124h9.655
						c0,0.003-0.001,0.005-0.001,0.008c0,0.113,0.025,0.222,0.033,0.332l-9.479,3.101c-0.155-0.847-0.246-1.715-0.246-2.604
						C875.13,688.682,875.152,688.402,875.168,688.124z M886.024,702.938l3.119-9.49v9.938
						C888.069,703.352,887.028,703.191,886.024,702.938z M958.653,670.364c-23.502,0-42.554-19.049-42.554-42.552
						s19.052-42.553,42.554-42.553c23.5,0,42.551,19.05,42.551,42.553C1001.202,651.315,982.153,670.364,958.653,670.364z
						 M1058.985,562.207l6.316,0.017l0.024,8.002l-5.56,0.028L1058.985,562.207z M1060.906,581.969l-0.75-7.717l5.183-0.026
						l0.023,7.743H1060.906z M1073.673,581.969h-4.312l-0.023-7.764l5.093-0.025L1073.673,581.969z M1074.821,570.178l-5.494,0.027
						l-0.024-7.979l6.294-0.013L1074.821,570.178z"/>
				</g>
			</g>
			<g display="none" enable-background="new    ">
				<path display="inline" fill="#C7332D" d="M198.801,963.218l-0.903,5.145c-2.166,0.181-4.061,0.271-5.685,0.271
					c-2.346,0-5.175-0.181-8.482-0.542c-5.655-0.602-9.235-0.901-10.738-0.901c-2.527,0-6.407,0.391-11.642,1.173
					c1.864-4.692,3.429-9.624,4.692-14.8c0.901-3.669,1.864-9.985,2.888-18.95c-7.027-0.06-17.928,0.091-32.702,0.45
					c-15.317,23.344-26.541,38.007-33.67,43.992c-7.129,5.986-13.913,8.979-20.349,8.979c-3.369,0-5.88-0.647-7.535-1.94
					c-1.654-1.294-2.482-2.964-2.482-5.008c0-1.564,0.482-2.857,1.444-3.881c0.963-1.023,2.166-1.534,3.61-1.534
					c0.843,0,1.984,0.149,3.429,0.451c3.609,0.842,6.015,1.264,7.219,1.264c4.03,0,8.482-2.287,13.355-6.857
					c7.936-7.459,19.659-23.103,35.169-46.925c17.555-26.951,31.771-46.564,42.653-58.839c-14.842,1.324-24.095,2.589-27.759,3.79
					c-5.048,1.625-8.832,4.031-11.355,7.221c-2.524,3.188-3.785,6.438-3.785,9.745c0,1.083,0.391,2.617,1.173,4.604
					c0.842,2.227,1.263,3.851,1.263,4.873c0,1.323-0.512,2.497-1.533,3.519c-1.023,1.024-2.257,1.534-3.7,1.534
					c-2.046,0-3.687-0.767-4.918-2.301c-1.234-1.534-1.851-3.835-1.851-6.903c0-4.332,1.128-8.526,3.385-12.589
					c2.256-4.061,5.488-7.459,9.7-10.197c4.21-2.735,9.476-4.828,15.792-6.271c3.249-0.781,8.963-1.475,17.146-2.075
					c7.105-0.601,11.564-1.174,13.373-1.715c2.831-0.781,5.541-2.315,8.131-4.604c-1.808,7.399-3.104,13.867-3.887,19.402
					l-7.053,52.159l-4.067,37.358c4.452,1.145,8.452,1.716,12.002,1.716C193.476,964.03,196.032,963.76,198.801,963.218z
					 M169.743,927.934c2.888-24.424,5.774-42.263,8.662-53.513c-7.622,10.121-12.335,16.504-14.138,19.152l-23.187,34.359
					c4.985,0.182,12.105,0.271,21.359,0.271C164.724,928.204,167.158,928.114,169.743,927.934z"/>
				<path display="inline" fill="#C7332D" d="M272.853,893.643h12.851l-8.483,31.539c-4.994,18.315-7.49,28.738-7.49,31.27
					c0,1.144,0.271,2.016,0.813,2.616c0.542,0.603,1.142,0.901,1.805,0.901c1.022,0,2.225-0.451,3.609-1.354
					c1.984-1.383,5.745-4.873,11.279-10.469l2.979,3.34c-12.092,12.574-20.997,18.859-26.711,18.859
					c-1.926,0-3.564-0.736-4.918-2.211c-1.354-1.474-2.03-3.563-2.03-6.271c0-3.127,0.651-7.311,1.955-12.544
					c-5.351,6.137-11.964,11.521-19.838,16.152c-5.231,3.068-9.771,4.604-13.616,4.604c-2.104,0-3.758-0.693-4.959-2.078
					c-1.203-1.385-1.804-3.585-1.804-6.597c0-2.35,0.271-4.88,0.813-7.591c0.781-3.796,2.767-11.414,5.956-22.861
					c4.03-14.518,6.046-23.224,6.046-26.114c0-1.687-0.602-2.529-1.805-2.529c-1.083,0-2.558,0.558-4.422,1.669
					c-1.866,1.114-5.054,3.807-9.566,8.077l-3.97-3.159c8.062-7.219,14.213-11.957,18.454-14.213s7.655-3.384,10.242-3.384
					c1.443,0,2.617,0.527,3.52,1.582c0.903,1.055,1.354,2.696,1.354,4.924c0,4.156-2.166,14.368-6.497,30.634
					c-3.852,14.64-5.775,22.983-5.775,25.03c0,1.267,0.404,2.351,1.217,3.253c0.812,0.904,1.698,1.355,2.661,1.355
					c3.364,0,8.144-2.782,14.334-8.349c6.191-5.563,10.25-11.896,12.173-18.995L272.853,893.643z"/>
				<path display="inline" fill="#C7332D" d="M322.158,877.398l14.327-5.496l-6.482,25.259h18.687l-1.444,6.407h-18.7l-7.872,30.241
					c-2.499,9.079-3.748,15.393-3.748,18.939c0,1.624,0.346,2.798,1.038,3.521c0.69,0.722,1.639,1.082,2.843,1.082
					c1.864,0,4.722-1.112,8.573-3.339c5.054-2.946,9.865-6.286,14.438-10.018l3.429,4.151
					c-13.175,9.927-21.988,16.004-26.439,18.229c-4.453,2.227-8.031,3.339-10.739,3.339c-2.226,0-3.985-0.812-5.278-2.437
					c-1.294-1.624-1.94-4.271-1.94-7.94c0-4.332,1.142-10.949,3.429-19.854l9.188-35.916h-14.619l1.624-6.407h14.635
					L322.158,877.398z"/>
				<path display="inline" fill="#C7332D" d="M400.759,891.296c5.896,0,10.799,2.347,14.71,7.039
					c3.91,4.692,5.865,11.221,5.865,19.582c0,13.354-4.692,25.344-14.077,35.961c-9.387,10.619-19.313,15.928-29.78,15.928
					c-6.438,0-11.627-2.105-15.566-6.316c-3.94-4.21-5.911-9.956-5.911-17.235c0-12.634,3.609-24.305,10.829-35.014
					C375.911,897.944,387.223,891.296,400.759,891.296z M393.089,898.063c-5.114,0-10.063,3.655-14.846,10.966
					c-4.782,7.31-7.174,17.401-7.174,30.274c0,7.821,1.475,13.987,4.422,18.5c2.166,3.31,5.054,4.963,8.664,4.963
					c5.054,0,9.655-3.127,13.808-9.385c5.293-8.122,7.94-18.198,7.94-30.229c0-9.024-1.219-15.461-3.655-19.313
					C399.812,899.99,396.758,898.063,393.089,898.063z"/>
				<path display="inline" fill="#C7332D" d="M432.344,912.052l-2.707-3.609c5.955-5.956,11.615-10.348,16.98-13.176
					c5.367-2.826,9.594-4.24,12.679-4.24c1.269,0,2.221,0.271,2.854,0.812c0.632,0.542,0.949,1.295,0.949,2.257
					c0,1.204-0.482,3.52-1.443,6.948c-1.385,5.054-2.35,9.055-2.891,12.002c14.397-14.679,25.409-22.019,33.029-22.019
					c1.979,0,3.479,0.541,4.501,1.624c1.02,1.083,1.528,2.798,1.528,5.144c0,2.527-0.899,6.829-2.701,12.904
					c6.862-7.158,12.822-12.229,17.881-15.205c5.059-2.979,9.002-4.467,11.831-4.467c2.528,0,4.485,0.722,5.87,2.166
					c1.385,1.442,2.076,3.67,2.076,6.678c0,1.805-0.302,3.94-0.901,6.406c-0.603,2.468-2.798,9.986-6.588,22.561
					c-4.754,15.582-7.129,24.877-7.129,27.885c0,2.046,0.842,3.068,2.526,3.068c1.142,0,2.256-0.361,3.339-1.083
					c3.549-2.527,7.188-5.654,10.919-9.386l2.979,3.249c-1.265,1.022-3.642,3.129-7.13,6.316c-4.813,4.331-8.121,7.038-9.927,8.121
					c-3.489,2.045-6.438,3.068-8.844,3.068c-1.805,0-3.398-0.889-4.783-2.662s-2.075-4.226-2.075-7.354
					c0-2.889,0.421-6.271,1.265-10.152c0.842-3.88,3.308-12.589,7.398-26.125c3.068-10.166,4.604-16.333,4.604-18.499
					c0-2.045-0.902-3.068-2.707-3.068c-1.505,0-3.521,0.753-6.047,2.256c-5.175,3.13-9.506,6.949-12.994,11.461
					c-2.407,3.13-4.513,8.093-6.317,14.891c-4.03,14.859-7.038,26.981-9.022,36.367h-12.814l13.445-55.138
					c0.962-3.971,1.444-6.257,1.444-6.857c0-0.962-0.241-1.699-0.722-2.211c-0.479-0.512-1.172-0.769-2.071-0.769
					c-1.622,0-4.146,1.265-7.568,3.79c-5.945,4.272-10.225,8.408-12.838,12.408c-2.612,4.002-4.85,10.093-6.71,18.274l-6.938,30.501
					h-12.967l10.197-43.045c3.008-12.453,4.513-19.223,4.513-20.306c0-1.383-0.542-2.075-1.625-2.075
					C444.346,901.764,439.563,905.193,432.344,912.052z"/>
				<path display="inline" fill="#C7332D" d="M606.058,889.762l5.955-1.264l-6.77,22.831c-2.707,9.085-5.264,19.553-7.669,31.404
					c-1.323,6.438-1.984,10.589-1.984,12.452c0,1.865,0.752,2.799,2.256,2.799c0.962,0,2.496-0.633,4.603-1.896
					c3.729-2.225,7.311-4.993,10.738-8.302l2.888,3.519c-6.857,6.258-11.25,10.048-13.175,11.371
					c-3.851,2.647-7.521,4.603-11.01,5.865c-2.287,0.842-4.512,1.264-6.678,1.264c-1.564,0-2.738-0.36-3.521-1.083
					c-0.782-0.722-1.173-1.772-1.173-3.158c0-0.901,0.239-2.135,0.722-3.699l3.61-12.272c-5.175,6.196-11.341,11.521-18.5,15.973
					c-4.392,2.768-8.423,4.15-12.092,4.15c-3.49,0-6.168-1.232-8.032-3.699c-2.526-3.309-3.79-7.64-3.79-12.994
					c0-6.377,1.699-13.477,5.099-21.298c3.398-7.818,7.956-14.919,13.673-21.297c5.715-6.376,11.73-11.067,18.048-14.077
					c4.873-2.285,11.13-3.43,18.771-3.43c1.925,0,3.88,0.121,5.865,0.361L606.058,889.762z M594.867,903.568
					c-3.249-0.661-5.986-0.992-8.212-0.992c-5.415,0-10.139,1.489-14.168,4.467c-4.031,2.979-7.775,8.333-11.234,16.063
					c-3.46,7.731-5.188,15.447-5.188,23.147c0,4.092,0.69,7.038,2.075,8.844c1.384,1.806,3.188,2.707,5.415,2.707
					c4.149,0,8.603-2.241,13.354-6.724c4.752-4.48,8.241-10.934,10.469-19.356L594.867,903.568z"/>
				<path display="inline" fill="#C7332D" d="M647.388,877.398l14.327-5.496l-6.483,25.259h18.688l-1.443,6.407h-18.701
					l-7.872,30.241c-2.499,9.079-3.748,15.393-3.748,18.939c0,1.624,0.347,2.798,1.038,3.521c0.69,0.722,1.639,1.082,2.843,1.082
					c1.863,0,4.723-1.112,8.572-3.339c5.055-2.946,9.866-6.286,14.438-10.018l3.43,4.151c-13.176,9.927-21.989,16.004-26.44,18.229
					c-4.452,2.227-8.031,3.339-10.738,3.339c-2.228,0-3.986-0.812-5.279-2.437c-1.294-1.624-1.939-4.271-1.939-7.94
					c0-4.332,1.143-10.949,3.43-19.854l9.187-35.916h-14.619l1.624-6.407h14.636L647.388,877.398z"/>
				<path display="inline" fill="#C7332D" d="M742.773,889.762l5.955-1.264l-6.769,22.831c-2.707,9.085-5.265,19.553-7.67,31.404
					c-1.323,6.438-1.984,10.589-1.984,12.452c0,1.865,0.752,2.799,2.256,2.799c0.962,0,2.496-0.633,4.604-1.896
					c3.729-2.225,7.31-4.993,10.737-8.302l2.888,3.519c-6.857,6.258-11.25,10.048-13.175,11.371
					c-3.851,2.647-7.521,4.603-11.01,5.865c-2.287,0.842-4.512,1.264-6.678,1.264c-1.564,0-2.738-0.36-3.521-1.083
					c-0.781-0.722-1.173-1.772-1.173-3.158c0-0.901,0.239-2.135,0.722-3.699l3.61-12.272c-5.175,6.196-11.341,11.521-18.5,15.973
					c-4.392,2.768-8.423,4.15-12.092,4.15c-3.49,0-6.168-1.232-8.032-3.699c-2.525-3.309-3.79-7.64-3.79-12.994
					c0-6.377,1.699-13.477,5.1-21.298c3.397-7.818,7.956-14.919,13.672-21.297c5.715-6.376,11.73-11.067,18.048-14.077
					c4.873-2.285,11.13-3.43,18.771-3.43c1.926,0,3.88,0.121,5.865,0.361L742.773,889.762z M731.582,903.568
					c-3.248-0.661-5.986-0.992-8.212-0.992c-5.415,0-10.139,1.489-14.168,4.467c-4.03,2.979-7.775,8.333-11.234,16.063
					c-3.46,7.731-5.188,15.447-5.188,23.147c0,4.092,0.69,7.038,2.075,8.844c1.384,1.806,3.188,2.707,5.415,2.707
					c4.15,0,8.604-2.241,13.355-6.724c4.752-4.48,8.24-10.934,10.468-19.356L731.582,903.568z"/>
				<path display="inline" fill="#C7332D" d="M826.875,907.088c4.873-5.354,9.671-9.279,14.395-11.775
					c4.723-2.496,8.889-3.745,12.499-3.745c4.21,0,7.58,1.686,10.106,5.054c2.526,3.37,3.789,8.453,3.789,15.251
					c0,9.867-2.315,19.521-6.947,28.967c-4.635,9.446-10.363,16.636-17.191,21.567c-6.828,4.933-13.49,7.399-19.988,7.399
					c-5.534,0-9.957-1.625-13.265-4.873c-3.31-3.249-4.964-7.459-4.964-12.634c0-4.15,0.813-9.927,2.437-17.326l10.648-47.736
					c2.586-11.671,5.835-20.561,9.746-26.667c3.91-6.104,9.054-10.979,15.432-14.618c6.376-3.64,12.422-5.46,18.139-5.46
					c3.43,0,5.939,0.587,7.534,1.76s2.393,2.752,2.393,4.737c0,1.805-0.725,3.31-2.167,4.513c-1.445,1.204-3.491,1.805-6.141,1.805
					c-1.985,0-5.417-0.45-10.291-1.354c-2.169-0.421-4.095-0.632-5.777-0.632c-3.011,0-5.448,1.624-7.314,4.873
					c-1.384,2.525-3.28,8.934-5.688,19.221L826.875,907.088z M844.655,901.583c-2.949,0-6.453,1.775-10.514,5.324
					c-4.061,3.551-7.896,9.821-11.506,18.814c-3.609,8.994-5.414,17.822-5.414,26.485c0,3.249,1.038,5.972,3.113,8.167
					c2.074,2.197,4.495,3.294,7.265,3.294c6.678,0,12.634-5.279,17.867-15.837c5.233-10.56,7.852-21.071,7.852-31.539
					c0-4.752-0.993-8.633-2.979-11.642C848.953,902.607,847.06,901.583,844.655,901.583z"/>
				<path display="inline" fill="#C7332D" d="M876.781,909.705l-2.888-4.241l6.678-4.513c6.497-4.451,11.068-7.31,13.716-8.572
					c1.505-0.722,2.889-1.083,4.151-1.083s2.466,0.722,3.609,2.164c5.294,6.674,9.746,15.677,13.355,27.008
					c3.609,11.332,5.414,22.317,5.414,32.958c0,1.383-0.061,3.486-0.181,6.313c10.166-18.721,15.251-33.588,15.251-44.604
					c0-2.287-0.513-5.327-1.534-9.12c-1.083-4.213-1.624-7.222-1.624-9.029c0-1.745,0.556-3.189,1.669-4.332
					c1.112-1.145,2.512-1.718,4.196-1.718c2.104,0,3.805,0.813,5.099,2.438c1.293,1.625,1.94,3.941,1.94,6.949
					c0,7.761-1.775,17.432-5.324,29.012c-3.551,11.582-9.13,24.035-16.74,37.36c-7.611,13.323-14.56,23.222-20.846,29.688
					c-6.287,6.466-12.362,11.101-18.229,13.896c-5.864,2.798-11.415,4.195-16.648,4.195c-3.972,0-6.962-0.736-8.979-2.211
					c-2.015-1.475-3.022-3.233-3.022-5.278c0-1.806,0.782-3.354,2.347-4.647c1.564-1.294,3.669-1.938,6.316-1.938
					c2.045,0,4.842,0.391,8.393,1.173c3.79,0.842,6.376,1.264,7.761,1.264c3.669,0,7.549-1.533,11.642-4.599
					c5.596-4.207,10.03-9.228,13.311-15.057c3.278-5.832,4.919-11.722,4.919-17.672c0-8.354-1.219-18.393-3.655-30.112
					c-2.436-11.719-5.881-20.677-10.332-26.867c-2.227-3.186-4.603-4.778-7.13-4.778
					C886.465,903.749,882.254,905.734,876.781,909.705z"/>
				<path display="inline" fill="#C7332D" d="M1068.722,893.913h-4.692c0.662-6.317,0.993-11.1,0.993-14.349
					c0-4.633-1.247-8.286-3.738-10.965c-2.49-2.677-5.866-4.016-10.128-4.016c-6.602,0-12.363,2.395-17.285,7.18
					c-4.921,4.787-7.382,10.16-7.382,16.12c0,3.191,0.674,6.082,2.025,8.671c1.349,2.588,4.334,6.201,8.953,10.837
					c8.457,8.311,14.007,14.813,16.646,19.509c2.64,4.694,3.959,9.271,3.959,13.727c0,6.563-2,12.885-6.001,18.965
					c-4.001,6.081-9.896,11.092-17.687,15.037c-7.792,3.942-16.019,5.915-24.682,5.915c-8.544,0-15.747-2.227-21.612-6.678
					c-5.865-4.453-8.8-9.145-8.8-14.077c0-2.646,0.769-4.843,2.303-6.588c1.534-1.744,3.294-2.617,5.278-2.617
					c2.044,0,3.729,0.813,5.054,2.438c0.842,0.963,1.684,3.129,2.526,6.496c0.961,4.093,2.136,7.056,3.521,8.89
					c1.383,1.835,3.293,3.34,5.729,4.513c2.437,1.173,5.1,1.76,7.986,1.76c8.604,0,16.122-2.905,22.561-8.716
					c6.438-5.809,9.656-12.237,9.656-19.281c0-2.408-0.406-4.802-1.219-7.179s-2.301-5.072-4.467-8.084
					c-1.505-2.047-4.844-5.659-10.018-10.837c-5.113-5.057-8.333-8.521-9.655-10.387c-1.865-2.708-3.248-5.434-4.15-8.172
					c-0.902-2.74-1.354-5.465-1.354-8.175c0-5.479,1.834-10.986,5.505-16.526c3.669-5.538,8.438-9.948,14.304-13.229
					c5.865-3.281,12.527-4.923,19.988-4.923c3.729,0,8.332,0.572,13.807,1.715c3.128,0.603,5.835,1.054,8.122,1.354
					c-1.324,3.911-2.347,7.596-3.068,11.055C1070.979,876.753,1069.986,883.625,1068.722,893.913z"/>
				<path display="inline" fill="#C7332D" d="M1149.035,948.058l2.348,3.339c-5.536,6.137-11.221,11.01-17.057,14.619
					c-3.971,2.467-7.25,3.699-9.836,3.699c-2.105,0-3.806-0.843-5.099-2.525c-1.295-1.685-1.94-4.302-1.94-7.852
					c0-2.406,0.496-5.911,1.489-10.514c0.992-4.604,3.804-14.483,8.438-29.645c2.044-7.459,3.067-11.821,3.067-13.085
					c0-1.925-1.026-2.888-3.077-2.888c-2.535,0-5.701,1.26-9.504,3.78c-5.31,3.479-10.015,7.92-14.118,13.319
					c-2.596,3.454-4.679,8.575-6.245,15.363l-7.122,31.518h-13.446c2.888-10.517,5.113-19.11,6.678-25.78l13.266-57.873
					c2.405-10.692,5.58-18.923,9.521-24.692c3.939-5.77,9.083-10.376,15.432-13.818c6.348-3.443,12.618-5.165,18.815-5.165
					c2.586,0,4.632,0.642,6.136,1.922c1.503,1.281,2.256,2.898,2.256,4.851c0,1.646-0.738,3.097-2.214,4.347
					c-1.476,1.251-3.479,1.876-6.009,1.876c-1.447,0-3.313-0.158-5.604-0.479c-5.18-0.764-8.765-1.146-10.752-1.146
					c-2.771,0-5.03,1.118-6.776,3.354c-1.747,2.236-3.556,7.496-5.421,15.777l-10.066,44.542c7.167-7.51,14.968-13.846,23.4-19.013
					c4.938-3.063,8.914-4.595,11.926-4.595c2.35,0,4.186,0.69,5.511,2.072s1.988,3.309,1.988,5.777c0,2.047-0.243,4.093-0.726,6.138
					c-0.783,3.551-2.625,9.986-5.521,19.312c-3.923,12.875-6.231,20.877-6.925,24.004c-0.694,3.129-1.041,5.928-1.041,8.394
					c0,0.963,0.165,1.685,0.496,2.166c0.33,0.481,0.826,0.722,1.488,0.722c1.444,0,4.151-1.715,8.122-5.144
					C1143.14,952.871,1145.847,950.645,1149.035,948.058z"/>
				<path display="inline" fill="#C7332D" d="M1219.425,889.762l5.955-1.264l-6.77,22.831c-2.707,9.085-5.264,19.553-7.669,31.404
					c-1.324,6.438-1.984,10.589-1.984,12.452c0,1.865,0.752,2.799,2.256,2.799c0.962,0,2.496-0.633,4.603-1.896
					c3.729-2.225,7.311-4.993,10.738-8.302l2.888,3.519c-6.857,6.258-11.25,10.048-13.175,11.371
					c-3.851,2.647-7.521,4.603-11.01,5.865c-2.287,0.842-4.513,1.264-6.679,1.264c-1.563,0-2.737-0.36-3.52-1.083
					c-0.782-0.722-1.173-1.772-1.173-3.158c0-0.901,0.239-2.135,0.722-3.699l3.61-12.272c-5.175,6.196-11.341,11.521-18.5,15.973
					c-4.393,2.768-8.423,4.15-12.093,4.15c-3.489,0-6.168-1.232-8.031-3.699c-2.526-3.309-3.79-7.64-3.79-12.994
					c0-6.377,1.698-13.477,5.099-21.298c3.398-7.818,7.956-14.919,13.672-21.297c5.715-6.376,11.731-11.067,18.048-14.077
					c4.873-2.285,11.13-3.43,18.771-3.43c1.925,0,3.88,0.121,5.865,0.361L1219.425,889.762z M1208.236,903.568
					c-3.249-0.661-5.987-0.992-8.212-0.992c-5.415,0-10.139,1.489-14.168,4.467c-4.031,2.979-7.776,8.333-11.235,16.063
					c-3.46,7.731-5.188,15.447-5.188,23.147c0,4.092,0.689,7.038,2.075,8.844c1.384,1.806,3.188,2.707,5.415,2.707
					c4.149,0,8.603-2.241,13.354-6.724c4.752-4.48,8.241-10.934,10.468-19.356L1208.236,903.568z"/>
				<path display="inline" fill="#C7332D" d="M1275.104,891.296c5.354,0,9.489,1.038,12.408,3.113
					c2.918,2.075,4.377,4.467,4.377,7.174c0,1.625-0.617,3.039-1.851,4.241c-1.233,1.204-2.723,1.806-4.468,1.806
					c-1.143,0-2.136-0.256-2.978-0.768c-0.844-0.511-2.046-1.789-3.609-3.835c-2.948-3.91-5.866-5.866-8.754-5.866
					c-2.467,0-4.647,0.948-6.542,2.84c-1.896,1.894-2.843,4.252-2.843,7.074c0,2.465,0.601,4.854,1.805,7.166
					c1.203,2.313,4.241,6.055,9.114,11.221c6.678,7.091,10.017,13.821,10.017,20.188c0,6.369-2.707,11.942-8.121,16.72
					c-5.415,4.776-12.395,7.165-20.937,7.165c-7.159,0-12.483-1.46-15.974-4.377c-3.489-2.917-5.232-6.513-5.232-10.784
					c0-2.104,0.661-3.849,1.984-5.233c1.322-1.384,2.946-2.075,4.873-2.075c1.685,0,3.127,0.558,4.331,1.67
					c1.203,1.112,1.806,2.422,1.806,3.926c0,0.602-0.04,1.384-0.119,2.346c-0.041,0.782-0.062,1.444-0.062,1.985
					c0,1.984,0.84,3.67,2.519,5.054c1.619,1.385,3.837,2.075,6.653,2.075c3.237,0,6.084-0.556,8.543-1.666
					c2.457-1.111,4.375-2.795,5.756-5.048c1.379-2.254,2.067-4.491,2.067-6.715c0-2.163-0.646-4.326-1.939-6.489
					c-1.294-2.163-4.196-5.738-8.708-10.727c-6.258-6.97-9.387-13.669-9.387-20.099c0-5.888,2.377-11.042,7.131-15.458
					C1261.717,893.504,1267.764,891.296,1275.104,891.296z"/>
				<path display="inline" fill="#C7332D" d="M1356.14,889.762l5.955-1.264l-6.77,22.831c-2.707,9.085-5.264,19.553-7.669,31.404
					c-1.324,6.438-1.984,10.589-1.984,12.452c0,1.865,0.752,2.799,2.256,2.799c0.962,0,2.496-0.633,4.603-1.896
					c3.729-2.225,7.311-4.993,10.738-8.302l2.888,3.519c-6.857,6.258-11.25,10.048-13.175,11.371
					c-3.851,2.647-7.521,4.603-11.01,5.865c-2.287,0.842-4.513,1.264-6.679,1.264c-1.563,0-2.737-0.36-3.52-1.083
					c-0.782-0.722-1.173-1.772-1.173-3.158c0-0.901,0.239-2.135,0.722-3.699l3.61-12.272c-5.175,6.196-11.341,11.521-18.5,15.973
					c-4.392,2.768-8.423,4.15-12.092,4.15c-3.49,0-6.168-1.232-8.032-3.699c-2.526-3.309-3.79-7.64-3.79-12.994
					c0-6.377,1.699-13.477,5.099-21.298c3.398-7.818,7.956-14.919,13.672-21.297c5.715-6.376,11.731-11.067,18.049-14.077
					c4.873-2.285,11.13-3.43,18.771-3.43c1.925,0,3.88,0.121,5.865,0.361L1356.14,889.762z M1344.949,903.568
					c-3.249-0.661-5.986-0.992-8.212-0.992c-5.415,0-10.139,1.489-14.168,4.467c-4.031,2.979-7.776,8.333-11.235,16.063
					c-3.459,7.731-5.188,15.447-5.188,23.147c0,4.092,0.689,7.038,2.075,8.844c1.384,1.806,3.188,2.707,5.415,2.707
					c4.149,0,8.603-2.241,13.354-6.724c4.752-4.48,8.241-10.934,10.468-19.356L1344.949,903.568z"/>
				<path display="inline" fill="#C7332D" d="M1455.043,880.737l1.084-4.422c6.863-0.48,14.27-1.686,22.216-3.612
					c-2.103,6.204-3.634,11.204-4.595,14.997l-4.862,20.146c10.638,0,18.646-2.663,24.021-7.993
					c5.378-5.327,8.068-11.666,8.068-19.013c0-5.117-1.94-9.241-5.82-12.373c-3.881-3.13-9.672-4.695-17.371-4.695
					c-10.89,0-21.268,2.59-31.134,7.77c-9.867,5.18-17.552,11.939-23.057,20.281c-5.504,8.342-8.258,16.699-8.258,25.069
					c0,2.29,0.316,4.412,0.947,6.369c0.632,1.957,1.549,3.749,2.753,5.375c0.723,0.965,2.315,2.288,4.782,3.976
					c2.768,1.929,4.481,3.357,5.146,4.292c0.661,0.934,0.991,2.033,0.991,3.297c0,1.266-0.467,2.364-1.397,3.298
					c-0.935,0.934-2.063,1.4-3.385,1.4c-3.43,0-6.903-2.499-10.423-7.497c-3.52-4.999-5.278-11.172-5.278-18.521
					c0-10.117,3.021-19.918,9.068-29.403c6.046-9.484,14.604-17.088,25.673-22.81c11.069-5.722,23.252-8.583,36.549-8.583
					c10.828,0,19.055,2.138,24.681,6.413c5.625,4.275,8.438,9.482,8.438,15.623c0,5.84-1.896,11.153-5.686,15.938
					c-3.79,4.787-9.536,8.476-17.236,11.063c5.293,0.842,9.477,2.27,12.544,4.283c3.067,2.015,5.429,4.556,7.083,7.621
					c1.654,3.066,2.482,6.583,2.482,10.552c0,6.494-1.911,12.642-5.73,18.444c-3.82,5.802-9.445,10.61-16.875,14.43
					c-7.431,3.817-15.176,5.726-23.236,5.726c-2.348,0-7.37-0.239-15.07-0.722c-3.67-0.181-7.521-0.271-11.551-0.271
					c-6.137,0-11.582,0.48-16.334,1.444l1.354-4.964c6.316-0.359,10.813-1.872,13.49-4.54s5.189-8.558,7.535-17.669l13.355-52.448
					c0.541-2.242,0.813-3.938,0.813-5.09c0-0.908-0.376-1.712-1.128-2.409c-0.753-0.695-1.7-1.046-2.843-1.046
					C1456.365,880.467,1455.766,880.558,1455.043,880.737z M1467.446,913.269l-4.594,18.159c-2.343,9.396-4.594,16.624-6.754,21.685
					c-1.28,3.009-2.925,5.563-4.934,7.67c5.413,1.323,10.074,1.984,13.986,1.984c10.526,0,18.483-3.251,23.868-9.755
					c5.384-6.503,8.077-13.76,8.077-21.769c0-3.975-1.007-7.393-3.021-10.252c-2.014-2.86-4.656-4.862-7.932-6.007
					C1482.87,913.841,1476.637,913.269,1467.446,913.269z"/>
				<path display="inline" fill="#C7332D" d="M1568.476,891.296c5.896,0,10.799,2.347,14.71,7.039
					c3.91,4.692,5.865,11.221,5.865,19.582c0,13.354-4.692,25.344-14.077,35.961c-9.386,10.619-19.313,15.928-29.779,15.928
					c-6.438,0-11.627-2.105-15.567-6.316c-3.939-4.21-5.91-9.956-5.91-17.235c0-12.634,3.609-24.305,10.829-35.014
					C1543.629,897.944,1554.94,891.296,1568.476,891.296z M1560.806,898.063c-5.114,0-10.063,3.655-14.845,10.966
					c-4.783,7.31-7.174,17.401-7.174,30.274c0,7.821,1.474,13.987,4.422,18.5c2.165,3.31,5.053,4.963,8.662,4.963
					c5.054,0,9.655-3.127,13.808-9.385c5.293-8.122,7.94-18.198,7.94-30.229c0-9.024-1.219-15.461-3.654-19.313
					C1567.529,899.99,1564.475,898.063,1560.806,898.063z"/>
				<path display="inline" fill="#C7332D" d="M1635.164,945.44l3.068,3.249c-4.691,5.294-10.242,10.121-16.648,14.482
					c-6.407,4.361-11.688,6.542-15.839,6.542c-1.864,0-3.398-0.707-4.602-2.12c-1.204-1.413-1.806-3.354-1.806-5.819
					c0-4.813,1.862-14.801,5.588-29.96l9.732-39.616c3.545-14.317,6.52-23.914,8.923-28.787c3.727-7.371,8.997-13.095,15.816-17.17
					c6.818-4.074,14.014-6.112,21.586-6.112c2.583,0,4.61,0.622,6.083,1.863c1.473,1.242,2.208,2.741,2.208,4.498
					c0,1.938-0.721,3.529-2.159,4.771c-1.438,1.242-3.536,1.862-6.293,1.862c-1.799,0-4.347-0.301-7.644-0.902
					c-2.878-0.479-5.546-0.722-8.003-0.722c-2.458,0-4.316,0.509-5.575,1.526c-1.739,1.438-3.313,4.462-4.721,9.071
					c-1.409,4.61-3.701,13.711-6.878,27.303l-9.004,37.812c-4.453,18.95-6.678,28.848-6.678,29.689c0,1.926,0.69,2.888,2.075,2.888
					c1.322,0,3.249-0.781,5.776-2.347C1625.171,954.315,1630.168,950.313,1635.164,945.44z"/>
				<path display="inline" fill="#C7332D" d="M1667.199,877.398l14.327-5.496l-6.483,25.259h18.688l-1.443,6.407h-18.701
					l-7.871,30.241c-2.499,9.079-3.748,15.393-3.748,18.939c0,1.624,0.346,2.798,1.037,3.521c0.69,0.722,1.639,1.082,2.844,1.082
					c1.863,0,4.722-1.112,8.572-3.339c5.054-2.946,9.865-6.286,14.438-10.018l3.43,4.151c-13.176,9.927-21.988,16.004-26.439,18.229
					c-4.453,2.227-8.032,3.339-10.739,3.339c-2.227,0-3.985-0.812-5.279-2.437c-1.294-1.624-1.938-4.271-1.938-7.94
					c0-4.332,1.142-10.949,3.429-19.854l9.188-35.916h-14.619l1.624-6.407h14.635L1667.199,877.398z"/>
				<path display="inline" fill="#C7332D" d="M1745.8,891.296c5.896,0,10.799,2.347,14.71,7.039
					c3.91,4.692,5.865,11.221,5.865,19.582c0,13.354-4.692,25.344-14.077,35.961c-9.387,10.619-19.313,15.928-29.779,15.928
					c-6.438,0-11.627-2.105-15.567-6.316c-3.939-4.21-5.91-9.956-5.91-17.235c0-12.634,3.609-24.305,10.829-35.014
					C1720.952,897.944,1732.264,891.296,1745.8,891.296z M1738.13,898.063c-5.114,0-10.063,3.655-14.846,10.966
					c-4.782,7.31-7.174,17.401-7.174,30.274c0,7.821,1.475,13.987,4.422,18.5c2.165,3.31,5.054,4.963,8.663,4.963
					c5.053,0,9.655-3.127,13.808-9.385c5.293-8.122,7.94-18.198,7.94-30.229c0-9.024-1.219-15.461-3.654-19.313
					C1744.853,899.99,1741.799,898.063,1738.13,898.063z"/>
				<path display="inline" fill="#C7332D" d="M1777.656,912.503l-3.067-3.159c7.707-7.376,13.848-12.271,18.425-14.689
					c4.575-2.418,8.489-3.628,11.741-3.628c1.264,0,2.258,0.271,2.979,0.812c0.723,0.542,1.084,1.174,1.084,1.896
					c0,0.541-0.15,1.505-0.451,2.888l-4.066,18.161c6.125-6.805,13.813-13.157,23.062-19.061c4.926-3.069,8.979-4.605,12.163-4.605
					c2.342,0,4.174,0.753,5.495,2.256c1.321,1.505,1.981,3.671,1.981,6.498c0,1.865-0.271,3.97-0.81,6.315
					c-0.959,3.911-3.478,12.425-7.554,25.538c-3.836,12.272-5.754,20.427-5.754,24.455c0,1.234,0.181,2.159,0.541,2.775
					c0.36,0.617,0.871,0.925,1.533,0.925c1.744,0,4.481-1.684,8.213-5.054c2.646-2.405,5.293-4.632,7.94-6.678l2.256,3.249
					c-5.534,6.105-11.279,11.017-17.234,14.728c-3.791,2.396-6.919,3.591-9.386,3.591c-2.287,0-4.062-0.827-5.324-2.48
					c-1.264-1.653-1.896-4.347-1.896-8.076c0-5.354,3.339-18.68,10.018-39.978c2.044-7.58,3.067-12.002,3.067-13.266
					c0-1.864-1.113-2.798-3.339-2.798c-2.407,0-5.505,1.267-9.295,3.796c-5.656,3.735-10.378,8.133-14.168,13.193
					c-2.407,3.255-4.422,8.435-6.046,15.543l-7.311,31.539h-13.445c2.525-9.035,4.723-17.683,6.588-25.937l8.031-34.34
					c0.3-1.385,0.45-2.379,0.45-2.979c0-1.626-0.603-2.439-1.805-2.439c-0.963,0-2.347,0.638-4.151,1.91
					C1784.393,905.891,1780.905,908.924,1777.656,912.503z"/>
			</g>
		</g>
	</g>
</g>
<g id="Layer_2">
</g>
<text transform="matrix(1 0 0 1 124.8137 990.416)" fill="#C7332D" font-family="'MonotypeCorsiva'" font-size="184.3679">Designed By Shasa Boton</text>
</svg>
